<?xml version="1.0" encoding="UTF-8" standalone="no"?>
<svg
   xmlns:dc="http://purl.org/dc/elements/1.1/"
   xmlns:cc="http://creativecommons.org/ns#"
   xmlns:rdf="http://www.w3.org/1999/02/22-rdf-syntax-ns#"
   xmlns:svg="http://www.w3.org/2000/svg"
   xmlns="http://www.w3.org/2000/svg"
   xmlns:sodipodi="http://sodipodi.sourceforge.net/DTD/sodipodi-0.dtd"
   xmlns:inkscape="http://www.inkscape.org/namespaces/inkscape"
   width="6.9000001mm"
   height="6.9000001mm"
   viewBox="0 0 6.9000001 6.9000001"
   version="1.1"
   id="svg1628"
   sodipodi:docname="5.svg"
   inkscape:version="1.0.1 (3bc2e813f5, 2020-09-07)">
  <defs
     id="defs1622" />
  <sodipodi:namedview
     id="base"
     pagecolor="#ffffff"
     bordercolor="#666666"
     borderopacity="1.0"
     inkscape:pageopacity="0.0"
     inkscape:pageshadow="2"
     inkscape:zoom="16"
     inkscape:cx="12.581293"
     inkscape:cy="11.951651"
     inkscape:document-units="mm"
     inkscape:current-layer="layer1"
     inkscape:document-rotation="0"
     showgrid="false" />
  <metadata
     id="metadata1625">
    <rdf:RDF>
      <cc:Work
         rdf:about="">
        <dc:format>image/svg+xml</dc:format>
        <dc:type
           rdf:resource="http://purl.org/dc/dcmitype/StillImage" />
        <dc:title></dc:title>
      </cc:Work>
    </rdf:RDF>
  </metadata>
  <g
     inkscape:label="Capa 1"
     inkscape:groupmode="layer"
     id="layer1">
    <path
       style="opacity:0.994;fill:#f8f8f8;fill-opacity:1;stroke:none;stroke-width:0.316131;stroke-miterlimit:4;stroke-dasharray:none"
       d="M 0,3.4500001 A -3.45,3.45 0 0 1 3.45,0 -3.45,3.45 0 0 1 6.9,3.4500001 a -3.45,3.45 0 0 1 -3.45,3.45 -3.45,3.45 0 0 1 -3.45,-3.45 z"
       id="path2244" />
    <path
       style="opacity:0.994;fill:#f8f8f8;fill-opacity:1;stroke:none;stroke-width:0.189028;stroke-miterlimit:4;stroke-dasharray:none"
       d="M 3.3498291,3.3498292 V 0.2017011 A -3.2500001,3.2500001 0 0 0 0.201701,3.3498292 Z"
       id="path2375" />
    <path
       style="opacity:0.994;fill:#000000;fill-opacity:1;stroke:none;stroke-width:0.189028;stroke-miterlimit:4;stroke-dasharray:none"
       d="M 6.6984619,3.3498292 A -3.2500001,3.2500001 0 0 0 3.549817,0.2017011 v 3.1481281 z"
       id="path2373" />
    <path
       style="opacity:0.994;fill:#f8f8f8;fill-opacity:1;stroke:none;stroke-width:0.189028;stroke-miterlimit:4;stroke-dasharray:none"
       d="M 3.3498291,6.698462 V 3.5498171 H 0.201701 A -3.2500001,3.2500001 0 0 0 3.3498291,6.698462 Z"
       id="path2371" />
    <path
       style="opacity:0.994;fill:#f8f8f8;fill-opacity:1;stroke:none;stroke-width:0.189028;stroke-miterlimit:4;stroke-dasharray:none"
       d="M 3.549817,6.698462 A -3.2500001,3.2500001 0 0 0 6.6984619,3.5498171 H 3.549817 Z"
       id="path2191" />
    <path
       id="rect2224-6"
       style="opacity:0.994;fill:#f8f8f8;fill-opacity:1;stroke:none;stroke-width:0.187833;stroke-miterlimit:4;stroke-dasharray:none"
       d="M 3.5498048,6.7000001 V 3.5498048 H 6.7 V 3.3498168 H 3.5498048 V 0.2001382 h -0.199988 v 3.1496786 h -3.149679 v 0.199988 h 3.149679 v 3.1501953 z" />
  </g>
</svg>
