<?xml version="1.0" encoding="UTF-8" standalone="no"?>
<svg
   xmlns:dc="http://purl.org/dc/elements/1.1/"
   xmlns:cc="http://creativecommons.org/ns#"
   xmlns:rdf="http://www.w3.org/1999/02/22-rdf-syntax-ns#"
   xmlns:svg="http://www.w3.org/2000/svg"
   xmlns="http://www.w3.org/2000/svg"
   xmlns:sodipodi="http://sodipodi.sourceforge.net/DTD/sodipodi-0.dtd"
   xmlns:inkscape="http://www.inkscape.org/namespaces/inkscape"
   width="19.953098mm"
   height="35.199993mm"
   viewBox="0 0 19.953098 35.199993"
   version="1.1"
   id="svg3365"
   inkscape:version="1.0.1 (3bc2e813f5, 2020-09-07)"
   sodipodi:docname="PN.svg">
  <defs
     id="defs3359" />
  <sodipodi:namedview
     id="base"
     pagecolor="#ffffff"
     bordercolor="#666666"
     borderopacity="1.0"
     inkscape:pageopacity="0.0"
     inkscape:pageshadow="2"
     inkscape:zoom="1"
     inkscape:cx="-121.82219"
     inkscape:cy="89.390857"
     inkscape:document-units="mm"
     inkscape:current-layer="layer1"
     inkscape:document-rotation="0"
     showgrid="false" />
  <metadata
     id="metadata3362">
    <rdf:RDF>
      <cc:Work
         rdf:about="">
        <dc:format>image/svg+xml</dc:format>
        <dc:type
           rdf:resource="http://purl.org/dc/dcmitype/StillImage" />
        <dc:title></dc:title>
      </cc:Work>
    </rdf:RDF>
  </metadata>
  <g
     inkscape:label="Capa 1"
     inkscape:groupmode="layer"
     id="layer1"
     transform="translate(-62.220505,-8.4966928)">
    <path
       style="fill:#fc0000;stroke-width:0.11162"
       d="M 72.210479,43.696677 H 68.806072 V 42.91534 42.134003 H 70.0897 71.373329 V 30.735115 19.336226 l -0.194769,0.153193 -0.194773,0.15319 -3.897789,3.455036 -3.89779,3.455032 -0.483852,-0.549861 -0.483851,-0.549861 v -0.07678 -0.07678 l 4.353173,-3.8666 4.353173,-3.866596 v -0.03902 -0.03902 l -4.353173,-3.86304 -4.353173,-3.8630351 0.0021,-0.082619 0.0021,-0.082619 0.481227,-0.5500766 0.481228,-0.5500765 4.033517,3.5917142 4.033518,3.591718 h 0.05937 0.05937 v -2.90212 -2.9021162 h 0.781337 0.781337 v 2.9021162 2.902117 h 0.05904 0.05904 l 4.039567,-3.587204 4.03956,-3.5872045 0.520393,0.5902427 0.520394,0.5902429 -4.144609,3.6783319 -4.144605,3.678333 -0.258003,0.248882 -0.257999,0.248886 4.360032,3.876114 4.36003,3.876117 v 0.0941 0.0941 l -0.482434,0.53286 -0.48243,0.53286 -3.954456,-3.512141 -3.954463,-3.512136 -0.139525,-0.08606 -0.139525,-0.08605 v 11.391806 11.391809 h 1.339442 1.339433 v 0.781337 0.781338 z"
       id="path3950" />
  </g>
</svg>
