<?xml version="1.0" encoding="UTF-8" standalone="no"?>
<svg
   xmlns:dc="http://purl.org/dc/elements/1.1/"
   xmlns:cc="http://creativecommons.org/ns#"
   xmlns:rdf="http://www.w3.org/1999/02/22-rdf-syntax-ns#"
   xmlns:svg="http://www.w3.org/2000/svg"
   xmlns="http://www.w3.org/2000/svg"
   xmlns:sodipodi="http://sodipodi.sourceforge.net/DTD/sodipodi-0.dtd"
   xmlns:inkscape="http://www.inkscape.org/namespaces/inkscape"
   width="27.6mm"
   height="11.397321mm"
   viewBox="0 0 27.6 11.397321"
   version="1.1"
   id="svg2164"
   inkscape:version="1.0.1 (3bc2e813f5, 2020-09-07)"
   sodipodi:docname="Urgencia.svg">
  <defs
     id="defs2158" />
  <sodipodi:namedview
     id="base"
     pagecolor="#ffffff"
     bordercolor="#666666"
     borderopacity="1.0"
     inkscape:pageopacity="0.0"
     inkscape:pageshadow="2"
     inkscape:zoom="2.8"
     inkscape:cx="46.68035"
     inkscape:cy="69.895338"
     inkscape:document-units="mm"
     inkscape:current-layer="layer1"
     inkscape:document-rotation="0"
     showgrid="false" />
  <metadata
     id="metadata2161">
    <rdf:RDF>
      <cc:Work
         rdf:about="">
        <dc:format>image/svg+xml</dc:format>
        <dc:type
           rdf:resource="http://purl.org/dc/dcmitype/StillImage" />
        <dc:title />
      </cc:Work>
    </rdf:RDF>
  </metadata>
  <g
     inkscape:label="Capa 1"
     inkscape:groupmode="layer"
     id="layer1"
     transform="translate(-35.083886,-58.521952)">
    <path
       style="fill:#da0000;stroke-width:0.0616071;fill-opacity:1"
       d="m 38.872725,69.919273 h -3.788839 v -5.698661 -5.69866 h 3.788839 3.78884 v 0.924107 0.924107 h -0.33884 -0.338839 v 0.338839 0.33884 H 41.614243 41.2446 v 0.308035 0.308036 h -0.338839 -0.338839 v 0.616072 0.616071 h -0.33884 -0.338839 v 1.601786 1.601785 h 0.338839 0.33884 v 0.616072 0.616071 h 0.338839 0.338839 v 0.338839 0.33884 h 0.369643 0.369643 v 0.308037 0.308034 h 0.338839 0.33884 v 0.646876 0.646874 z m 9.980358,0 h -2.741519 v -0.33884 -0.338837 H 45.403082 44.6946 v -0.308037 -0.308036 h -0.338839 -0.338839 v -0.308034 -0.308037 h -0.338839 -0.33884 v -0.33884 -0.338839 H 43.000404 42.661565 V 66.715702 66.09963 h -0.33884 -0.338839 v -1.601785 -1.601786 h 0.338839 0.33884 v -0.616071 -0.616072 h 0.338839 0.338839 V 61.35588 61.047845 h 0.33884 0.338839 v -0.33884 -0.338839 H 44.355761 44.6946 V 60.06213 59.754095 h 0.708482 0.708482 v -0.308036 -0.308036 h 2.741519 2.741518 v 0.308036 0.308036 h 0.708482 0.708483 v 0.308035 0.308036 h 0.338839 0.33884 v 0.338839 0.33884 h 0.338837 0.33884 v 0.308035 0.308036 h 0.33884 0.338839 v 0.616072 0.616071 h 0.369643 0.369643 v 1.601786 1.601785 h -0.369643 -0.369643 v 0.616072 0.616071 h -0.338839 -0.33884 v 0.338839 0.33884 h -0.33884 -0.338837 v 0.308037 0.308034 h -0.33884 -0.338839 v 0.308036 0.308037 h -0.708483 -0.708482 v 0.338837 0.33884 z m 10.011162,0 h -3.819644 v -0.646874 -0.646876 h 0.369643 0.369643 v -0.308034 -0.308037 h 0.33884 0.33884 v -0.33884 -0.338839 h 0.338837 0.33884 V 66.715702 66.09963 h 0.338839 0.33884 v -1.601785 -1.601786 h -0.33884 -0.338839 v -0.616071 -0.616072 h -0.33884 -0.338837 V 61.35588 61.047845 h -0.33884 -0.33884 v -0.33884 -0.338839 h -0.369643 -0.369643 v -0.924107 -0.924107 h 3.819644 3.819641 v 5.69866 5.698661 z"
       id="path2747" />
    <path
       style="fill:#041b1b;stroke-width:0.0616071;fill-opacity:1"
       d="m 44.386565,69.919273 h -1.725 v -0.646874 -0.646876 h -0.33884 -0.338839 V 68.317489 68.009452 H 41.614243 41.2446 v -0.33884 -0.338839 H 40.905761 40.566922 V 66.715702 66.09963 h -0.33884 -0.338839 v -1.601785 -1.601786 h 0.338839 0.33884 V 62.279988 61.663916 H 40.905761 41.2446 V 61.35588 61.047845 h 0.369643 0.369643 v -0.33884 -0.338839 h 0.338839 0.33884 v -0.924107 -0.924107 h 6.191518 6.191518 v 0.924107 0.924107 h 0.369643 0.369643 v 0.338839 0.33884 h 0.33884 0.33884 v 0.308035 0.308036 h 0.338837 0.33884 v 0.616072 0.616071 h 0.338839 0.33884 v 1.601786 1.601785 h -0.33884 -0.338839 v 0.616072 0.616071 h -0.33884 -0.338837 v 0.338839 0.33884 h -0.33884 -0.33884 v 0.308037 0.308034 h -0.369643 -0.369643 v 0.646876 0.646874 H 53.3196 51.594601 v -0.33884 -0.338837 h 0.708482 0.708483 v -0.308037 -0.308036 h 0.338839 0.33884 v -0.308034 -0.308037 h 0.338837 0.33884 v -0.33884 -0.338839 h 0.33884 0.338839 V 66.715702 66.09963 h 0.369643 0.369643 v -1.601785 -1.601786 h -0.369643 -0.369643 v -0.616071 -0.616072 h -0.338839 -0.33884 V 61.35588 61.047845 h -0.33884 -0.338837 v -0.33884 -0.338839 h -0.33884 -0.338839 V 60.06213 59.754095 h -0.708483 -0.708482 v -0.308036 -0.308036 h -2.741518 -2.741519 v 0.308036 0.308036 H 45.403082 44.6946 v 0.308035 0.308036 h -0.338839 -0.338839 v 0.338839 0.33884 h -0.338839 -0.33884 v 0.308035 0.308036 h -0.338839 -0.338839 v 0.616072 0.616071 h -0.33884 -0.338839 v 1.601786 1.601785 h 0.338839 0.33884 v 0.616072 0.616071 h 0.338839 0.338839 v 0.338839 0.33884 h 0.33884 0.338839 v 0.308037 0.308034 h 0.338839 0.338839 v 0.308036 0.308037 h 0.708482 0.708482 v 0.338837 0.33884 z"
       id="path2745" />
  </g>
</svg>
