<?xml version="1.0" encoding="UTF-8" standalone="no"?>
<svg
   xmlns:dc="http://purl.org/dc/elements/1.1/"
   xmlns:cc="http://creativecommons.org/ns#"
   xmlns:rdf="http://www.w3.org/1999/02/22-rdf-syntax-ns#"
   xmlns:svg="http://www.w3.org/2000/svg"
   xmlns="http://www.w3.org/2000/svg"
   xmlns:sodipodi="http://sodipodi.sourceforge.net/DTD/sodipodi-0.dtd"
   xmlns:inkscape="http://www.inkscape.org/namespaces/inkscape"
   width="6.9000001mm"
   height="6.9000001mm"
   viewBox="0 0 6.9000001 6.9000001"
   version="1.1"
   id="svg1628"
   sodipodi:docname="1.svg"
   inkscape:version="1.0.1 (3bc2e813f5, 2020-09-07)">
  <defs
     id="defs1622" />
  <sodipodi:namedview
     id="base"
     pagecolor="#ffffff"
     bordercolor="#666666"
     borderopacity="1.0"
     inkscape:pageopacity="0.0"
     inkscape:pageshadow="2"
     inkscape:zoom="16"
     inkscape:cx="12.581293"
     inkscape:cy="11.951651"
     inkscape:document-units="mm"
     inkscape:current-layer="layer1"
     inkscape:document-rotation="0"
     showgrid="false" />
  <metadata
     id="metadata1625">
    <rdf:RDF>
      <cc:Work
         rdf:about="">
        <dc:format>image/svg+xml</dc:format>
        <dc:type
           rdf:resource="http://purl.org/dc/dcmitype/StillImage" />
        <dc:title></dc:title>
      </cc:Work>
    </rdf:RDF>
  </metadata>
  <g
     inkscape:label="Capa 1"
     inkscape:groupmode="layer"
     id="layer1">
    <path
       style="opacity:0.994;fill:#000000;fill-opacity:1;stroke:none;stroke-width:0.316131;stroke-miterlimit:4;stroke-dasharray:none"
       d="M 6.9,3.45 A 3.45,3.45 0 0 1 3.45,6.9000001 3.45,3.45 0 0 1 0,3.45 3.45,3.45 0 0 1 3.45,0 3.45,3.45 0 0 1 6.9,3.45 Z"
       id="path2244" />
    <path
       style="opacity:0.994;fill:#f8f8f8;fill-opacity:1;stroke:none;stroke-width:0.714437;stroke-miterlimit:4;stroke-dasharray:none"
       d="M 13.417969,13.417969 V 25.316406 A 12.283465,12.283465 0 0 0 25.316406,13.417969 Z"
       transform="scale(0.26458333)"
       id="path3149" />
    <path
       style="opacity:0.994;fill:#f8f8f8;fill-opacity:1;stroke:none;stroke-width:0.714437;stroke-miterlimit:4;stroke-dasharray:none"
       d="M 0.76171875,13.417969 A 12.283465,12.283465 0 0 0 12.662109,25.316406 V 13.417969 Z"
       transform="scale(0.26458333)"
       id="path3147" />
    <path
       style="opacity:0.994;fill:#000000;fill-opacity:1;stroke:none;stroke-width:0.714437;stroke-miterlimit:4;stroke-dasharray:none"
       d="M 13.417969,0.76171875 V 12.662109 H 25.316406 A 12.283465,12.283465 0 0 0 13.417969,0.76171875 Z"
       transform="scale(0.26458333)"
       id="path3145" />
    <path
       style="opacity:0.994;fill:#f8f8f8;fill-opacity:1;stroke:none;stroke-width:0.714437;stroke-miterlimit:4;stroke-dasharray:none"
       d="M 12.662109,0.76171875 A 12.283465,12.283465 0 0 0 0.76171875,12.662109 H 12.662109 Z"
       transform="scale(0.26458333)"
       id="path2191" />
    <path
       id="rect2224-6"
       style="opacity:0.994;fill:#000000;fill-opacity:1;stroke:none;stroke-width:0.187833;stroke-miterlimit:4;stroke-dasharray:none"
       d="M 3.3501952,0.2 V 3.3501953 H 0.2 v 0.199988 h 3.1501952 v 3.1496786 h 0.199988 V 3.5501833 h 3.149679 V 3.3501953 H 3.5501832 V 0.2 Z" />
  </g>
</svg>
